<?xml version="1.0" encoding="utf-8"?>
<!-- Generator: Adobe Illustrator 19.0.0, SVG Export Plug-In . SVG Version: 6.00 Build 0)  -->
<!DOCTYPE svg PUBLIC "-//W3C//DTD SVG 1.1//EN" "http://www.w3.org/Graphics/SVG/1.1/DTD/svg11.dtd" [
	<!ENTITY ns_extend "http://ns.adobe.com/Extensibility/1.0/">
	<!ENTITY ns_ai "http://ns.adobe.com/AdobeIllustrator/10.0/">
	<!ENTITY ns_graphs "http://ns.adobe.com/Graphs/1.0/">
	<!ENTITY ns_vars "http://ns.adobe.com/Variables/1.0/">
	<!ENTITY ns_imrep "http://ns.adobe.com/ImageReplacement/1.0/">
	<!ENTITY ns_sfw "http://ns.adobe.com/SaveForWeb/1.0/">
	<!ENTITY ns_custom "http://ns.adobe.com/GenericCustomNamespace/1.0/">
	<!ENTITY ns_adobe_xpath "http://ns.adobe.com/XPath/1.0/">
]>
<svg version="1.1" id="Layer_1" xmlns:x="&ns_extend;" xmlns:i="&ns_ai;" xmlns:graph="&ns_graphs;"
	 xmlns="http://www.w3.org/2000/svg" xmlns:xlink="http://www.w3.org/1999/xlink" x="0px" y="0px" width="1264px" height="628px"
	 viewBox="0 0 1264 628" style="enable-background:new 0 0 1264 628;" xml:space="preserve">
<style type="text/css">
	.st0{opacity:0.3;}
	.st1{fill:none;stroke:#000000;stroke-width:3.5;stroke-linecap:square;stroke-linejoin:round;stroke-miterlimit:10;}
	.st2{fill:none;stroke:#000000;stroke-width:4;stroke-linecap:square;stroke-linejoin:round;stroke-miterlimit:10;}
	.st3{fill:none;stroke:#000000;stroke-width:2.5;stroke-linecap:square;stroke-linejoin:round;stroke-miterlimit:10;}
	.st4{fill:none;stroke:#000000;stroke-width:3;stroke-linecap:square;stroke-linejoin:round;stroke-miterlimit:10;}
	.st5{fill:none;stroke:#000000;stroke-width:2.5;stroke-linecap:round;stroke-linejoin:round;stroke-miterlimit:10;}
	.st6{fill:none;stroke:#000000;stroke-width:4;stroke-linecap:square;stroke-miterlimit:10;}
	.st7{fill:none;stroke:#000000;stroke-width:3.5;stroke-linecap:square;stroke-miterlimit:10;}
	.st8{fill:#FFFDFA;}
	.st9{fill:#327E9C;}
	.st10{fill:none;stroke:#FFFDFA;stroke-width:3.5;stroke-miterlimit:10;}
	.st11{fill:#EAE4DC;}
	.st12{opacity:0.1;}
	.st13{fill:#47B4E0;}
	.st14{fill:none;stroke:#FFFDFA;stroke-width:2.5;stroke-linecap:square;stroke-linejoin:round;stroke-miterlimit:10;}
	.st15{fill:#47B4E0;stroke:#FFFDFA;stroke-width:2.5;stroke-linecap:square;stroke-linejoin:round;stroke-miterlimit:10;}
	.st16{fill:#47B4E0;stroke:#FFFDFA;stroke-width:2.5;stroke-linecap:round;stroke-miterlimit:10;}
	.st17{fill:#47B4E0;stroke:#FFFDFA;stroke-width:2.5;stroke-linejoin:round;stroke-miterlimit:10;}
	.st18{fill:none;stroke:#FFFDFA;stroke-width:3.5;stroke-linejoin:round;stroke-miterlimit:10;}
	.st19{fill:none;stroke:#FFFDFA;stroke-width:2.5;stroke-linejoin:round;stroke-miterlimit:10;}
	.st20{fill:none;stroke:#FFFDFA;stroke-width:2.5;stroke-linecap:round;stroke-linejoin:round;stroke-miterlimit:10;}
	.st21{fill:none;stroke:#47B4E0;stroke-width:2.5;stroke-linecap:square;stroke-linejoin:round;stroke-miterlimit:10;}
	.st22{fill:none;stroke:#FFFDFA;stroke-width:3.5;stroke-linecap:square;stroke-linejoin:round;stroke-miterlimit:10;}
	.st23{fill:none;stroke:#FFFDFA;stroke-width:3;stroke-linecap:square;stroke-linejoin:round;stroke-miterlimit:10;}
	.st24{opacity:0.3;fill:#FFFFFF;}
	.st25{fill:#FFFFFF;}
	.st26{font-family:'ProximaNova-Extrabld';}
	.st27{font-size:22.9025px;}
	.st28{fill:none;stroke:#327E9C;stroke-width:2.5;stroke-linecap:round;stroke-linejoin:round;stroke-miterlimit:10;}
</style>
<metadata>
	<sfw  xmlns="&ns_sfw;">
		<slices></slices>
		<sliceSourceBounds  height="630.5" width="861.7" bottomLeftOrigin="true" y="780.5" x="-351.7"></sliceSourceBounds>
	</sfw>
</metadata>
<g id="XMLID_52_" class="st0">
	<g id="XMLID_143_">
		<path id="XMLID_159_" class="st1" d="M434.6,146"/>
		<path id="XMLID_158_" class="st1" d="M434.6,106.5"/>
		<g id="XMLID_144_">
			<path id="XMLID_148_" class="st1" d="M526.4,146"/>
			<line id="XMLID_142_" class="st2" x1="434.7" y1="106.3" x2="526.7" y2="106.3"/>
			<line id="XMLID_156_" class="st2" x1="434.7" y1="147.3" x2="525.7" y2="147.3"/>
			<line id="XMLID_155_" class="st2" x1="478.7" y1="107.3" x2="478.7" y2="146.3"/>
			<line id="XMLID_154_" class="st3" x1="480.9" y1="146" x2="527.3" y2="105.9"/>
			<line id="XMLID_153_" class="st3" x1="434.6" y1="146" x2="480.9" y2="105.9"/>
			<line id="XMLID_152_" class="st3" x1="480.9" y1="146" x2="434.6" y2="105.9"/>
			<line id="XMLID_151_" class="st3" x1="527.3" y1="146" x2="480.9" y2="105.9"/>
			<line id="XMLID_145_" class="st2" x1="526.7" y1="107.3" x2="526.7" y2="262.3"/>
		</g>
	</g>
	<line id="XMLID_551_" class="st4" x1="440.2" y1="442.3" x2="440.2" y2="476.3"/>
	<line id="XMLID_13_" class="st2" x1="603.7" y1="82.3" x2="603.7" y2="18.3"/>
	<line id="XMLID_101_" class="st2" x1="570.7" y1="82.3" x2="570.7" y2="0.3"/>
	<line id="XMLID_96_" class="st3" x1="602.9" y1="82.6" x2="571.3" y2="50.1"/>
	<line id="XMLID_93_" class="st3" x1="571.3" y1="82.6" x2="602.9" y2="50.1"/>
	<line id="XMLID_92_" class="st3" x1="602.9" y1="50.3" x2="571.3" y2="17.9"/>
	<line id="XMLID_91_" class="st3" x1="571.3" y1="50.3" x2="602.9" y2="17.9"/>
	<line id="XMLID_82_" class="st2" x1="603.7" y1="52.3" x2="570.7" y2="52.3"/>
	<line id="XMLID_106_" class="st2" x1="816.7" y1="296.3" x2="816.7" y2="147.3"/>
	<line id="XMLID_105_" class="st2" x1="783.7" y1="296.3" x2="783.7" y2="190.3"/>
	<line id="XMLID_99_" class="st3" x1="816.6" y1="264.1" x2="785.6" y2="232.2"/>
	<line id="XMLID_90_" class="st3" x1="785" y1="264.1" x2="816.6" y2="231.6"/>
	<line id="XMLID_89_" class="st2" x1="816.7" y1="266.3" x2="665.7" y2="266.3"/>
	<line id="XMLID_116_" class="st3" x1="816.6" y1="231.3" x2="785" y2="198.8"/>
	<line id="XMLID_114_" class="st3" x1="785" y1="231.3" x2="816.6" y2="198.8"/>
	<line id="XMLID_182_" class="st3" x1="848.4" y1="230.5" x2="817.6" y2="198.8"/>
	<line id="XMLID_181_" class="st3" x1="817.6" y1="231.3" x2="848.4" y2="199.7"/>
	<line id="XMLID_110_" class="st2" x1="848.7" y1="199.3" x2="784.7" y2="199.3"/>
	<line id="XMLID_111_" class="st2" x1="848.7" y1="232.3" x2="784.7" y2="232.3"/>
	<line id="XMLID_118_" class="st3" x1="785.3" y1="231.3" x2="754.8" y2="200"/>
	<line id="XMLID_117_" class="st3" x1="754.8" y1="230.2" x2="785.3" y2="198.8"/>
	<line id="XMLID_112_" class="st2" x1="785.7" y1="199.3" x2="720.7" y2="199.3"/>
	<line id="XMLID_108_" class="st2" x1="785.7" y1="232.3" x2="720.7" y2="232.3"/>
	<line id="XMLID_120_" class="st2" x1="719.7" y1="129.3" x2="719.7" y2="280.3"/>
	<line id="XMLID_128_" class="st4" x1="751.2" y1="199.3" x2="751.2" y2="230.3"/>
	<line id="XMLID_124_" class="st3" x1="751.6" y1="230.2" x2="721.1" y2="198.8"/>
	<line id="XMLID_123_" class="st3" x1="721.1" y1="231.3" x2="751.6" y2="200"/>
	<path id="XMLID_51_" class="st3" d="M777.9,78.6"/>
	<line id="XMLID_81_" class="st2" x1="776.7" y1="17.3" x2="776.7" y2="79.3"/>
	<line id="XMLID_41_" class="st2" x1="570.7" y1="17.3" x2="823.7" y2="17.3"/>
	<path id="XMLID_68_" class="st1" d="M441.6,442.2"/>
	<path id="XMLID_80_" class="st1" d="M394.6,366.1"/>
	<line id="XMLID_29_" class="st2" x1="354.7" y1="439.3" x2="354.7" y2="369.3"/>
	<line id="XMLID_19_" class="st2" x1="394.7" y1="371.3" x2="394.7" y2="439.3"/>
	<line id="XMLID_17_" class="st3" x1="356.3" y1="410.3" x2="394.4" y2="440.5"/>
	<line id="XMLID_15_" class="st3" x1="394.4" y1="410.3" x2="356.3" y2="440.5"/>
	<line id="XMLID_14_" class="st2" x1="354.7" y1="411.3" x2="394.7" y2="411.3"/>
	<line id="XMLID_59_" class="st3" x1="318.2" y1="411.4" x2="354.9" y2="440.5"/>
	<line id="XMLID_26_" class="st3" x1="354.9" y1="410.3" x2="316.8" y2="440.5"/>
	<line id="XMLID_24_" class="st2" x1="315.7" y1="411.3" x2="354.7" y2="411.3"/>
	<line id="XMLID_104_" class="st3" x1="277.2" y1="410.9" x2="316.6" y2="440.5"/>
	<line id="XMLID_102_" class="st3" x1="314.1" y1="412" x2="278.5" y2="440.5"/>
	<line id="XMLID_206_" class="st3" x1="277.2" y1="380.7" x2="316.6" y2="410.3"/>
	<line id="XMLID_205_" class="st3" x1="314.1" y1="381.8" x2="278.5" y2="410.3"/>
	<line id="XMLID_64_" class="st2" x1="276.7" y1="411.3" x2="316.7" y2="411.3"/>
	<line id="XMLID_207_" class="st2" x1="276.7" y1="380.3" x2="316.7" y2="380.3"/>
	<path id="XMLID_79_" class="st1" d="M356.2,293"/>
	<line id="XMLID_76_" class="st2" x1="392.7" y1="116.3" x2="392.7" y2="294.3"/>
	<path id="XMLID_78_" class="st1" d="M396.9,293"/>
	<line id="XMLID_75_" class="st2" x1="433.7" y1="51.3" x2="433.7" y2="254.3"/>
	<line id="XMLID_28_" class="st2" x1="394.7" y1="148.3" x2="736.7" y2="148.3"/>
	<line id="XMLID_3_" class="st2" x1="353.7" y1="292.3" x2="353.7" y2="256.3"/>
	<line id="XMLID_25_" class="st3" x1="431.8" y1="254.1" x2="395.3" y2="219.8"/>
	<line id="XMLID_23_" class="st3" x1="395.3" y1="255.8" x2="433.4" y2="219.8"/>
	<line id="XMLID_22_" class="st2" x1="455.7" y1="256.3" x2="353.7" y2="256.3"/>
	<line id="XMLID_74_" class="st4" x1="433.7" y1="221.8" x2="283.7" y2="221.8"/>
	<line id="XMLID_73_" class="st3" x1="433.4" y1="220.9" x2="395.3" y2="184.9"/>
	<line id="XMLID_72_" class="st3" x1="433.4" y1="183.8" x2="395.3" y2="147.7"/>
	<line id="XMLID_71_" class="st3" x1="395.3" y1="220.9" x2="433.4" y2="184.9"/>
	<line id="XMLID_70_" class="st3" x1="395.3" y1="183.8" x2="433.4" y2="147.7"/>
	<line id="XMLID_515_" class="st3" x1="443.1" y1="475.6" x2="475.5" y2="444"/>
	<line id="XMLID_514_" class="st3" x1="476.6" y1="475.6" x2="509.1" y2="444"/>
	<line id="XMLID_513_" class="st3" x1="508.9" y1="475.6" x2="541.4" y2="444"/>
	<line id="XMLID_512_" class="st3" x1="443.1" y1="444" x2="475.5" y2="475.6"/>
	<line id="XMLID_511_" class="st3" x1="476.6" y1="444" x2="509.1" y2="475.6"/>
	<line id="XMLID_510_" class="st3" x1="508.9" y1="444" x2="541.4" y2="475.6"/>
	<line id="XMLID_509_" class="st3" x1="541.7" y1="475.6" x2="574.2" y2="444"/>
	<line id="XMLID_508_" class="st3" x1="541.7" y1="444" x2="574.2" y2="475.6"/>
	<line id="XMLID_507_" class="st4" x1="475.2" y1="443.3" x2="475.2" y2="476.3"/>
	<line id="XMLID_172_" class="st2" x1="316.7" y1="441.1" x2="316.8" y2="380.7"/>
	<line id="XMLID_173_" class="st2" x1="275.7" y1="477.3" x2="275.7" y2="381.3"/>
	<line id="XMLID_506_" class="st2" x1="506.7" y1="476.3" x2="506.7" y2="339.3"/>
	<line id="XMLID_505_" class="st4" x1="540.2" y1="476.3" x2="540.2" y2="443.3"/>
	<line id="XMLID_504_" class="st3" x1="574" y1="475.6" x2="606.5" y2="444"/>
	<line id="XMLID_503_" class="st3" x1="574" y1="444" x2="606.5" y2="475.6"/>
	<line id="XMLID_502_" class="st3" x1="606.8" y1="475.6" x2="639.2" y2="444"/>
	<line id="XMLID_501_" class="st3" x1="606.8" y1="444" x2="639.2" y2="475.6"/>
	<line id="XMLID_500_" class="st4" x1="571.2" y1="627.3" x2="571.2" y2="443.3"/>
	<line id="XMLID_498_" class="st4" x1="605.2" y1="604.3" x2="605.2" y2="443.3"/>
	<line id="XMLID_11_" class="st3" x1="639.3" y1="475.6" x2="671.8" y2="444"/>
	<line id="XMLID_10_" class="st3" x1="639.3" y1="444" x2="671.8" y2="475.6"/>
	<line id="XMLID_9_" class="st3" x1="671.6" y1="475.6" x2="704" y2="444"/>
	<line id="XMLID_8_" class="st3" x1="671.6" y1="444" x2="704" y2="475.6"/>
	<line id="XMLID_7_" class="st3" x1="704.3" y1="475.6" x2="736.8" y2="444"/>
	<line id="XMLID_6_" class="st3" x1="704.3" y1="444" x2="736.8" y2="475.6"/>
	<line id="XMLID_5_" class="st2" x1="669.7" y1="476.3" x2="669.7" y2="443.3"/>
	<line id="XMLID_12_" class="st4" x1="638.2" y1="476.3" x2="638.2" y2="443.3"/>
	<line id="XMLID_4_" class="st4" x1="703.2" y1="476.3" x2="703.2" y2="443.3"/>
	<line id="XMLID_177_" class="st2" x1="736.7" y1="476.3" x2="736.7" y2="443.3"/>
	<g id="XMLID_56_">
		<line id="XMLID_67_" class="st3" x1="768.7" y1="353.1" x2="768.7" y2="401"/>
		<line id="XMLID_66_" class="st3" x1="785.8" y1="364.7" x2="785.8" y2="400.3"/>
		<line id="XMLID_65_" class="st3" x1="785.8" y1="382.5" x2="768.7" y2="382.5"/>
		<line id="XMLID_63_" class="st3" x1="770.1" y1="401" x2="785.8" y2="382.5"/>
		<line id="XMLID_62_" class="st3" x1="818.7" y1="364.7" x2="818.7" y2="401"/>
		<line id="XMLID_61_" class="st3" x1="835.7" y1="353.1" x2="835.7" y2="400.3"/>
		<line id="XMLID_60_" class="st3" x1="835.7" y1="382.5" x2="818.7" y2="382.5"/>
		<line id="XMLID_58_" class="st3" x1="820" y1="401" x2="835.7" y2="382.5"/>
	</g>
	<g id="XMLID_126_">
		<polyline id="XMLID_133_" class="st5" points="774.1,86.3 755.3,105.1 767.9,117.7 		"/>
		<path id="XMLID_202_" class="st5" d="M786.2,119.5"/>
		<line id="XMLID_201_" class="st5" x1="782.5" y1="87" x2="800.6" y2="105.1"/>
		<circle id="XMLID_130_" class="st3" cx="777.9" cy="83.6" r="4.6"/>
	</g>
	<line id="XMLID_134_" class="st1" x1="417.8" y1="476.5" x2="737.3" y2="476.5"/>
	<path id="XMLID_107_" class="st1" d="M306.6,442.4"/>
	<polyline id="XMLID_141_" class="st6" points="246.7,471.3 246.7,442.3 736.7,442.3 	"/>
	<rect id="XMLID_140_" x="226.7" y="513.9" class="st7" width="41" height="31"/>
	<line id="XMLID_139_" class="st3" x1="226.5" y1="544.9" x2="267.7" y2="513.9"/>
	<line id="XMLID_138_" class="st3" x1="226.7" y1="513.9" x2="267.4" y2="544.2"/>
	<circle id="XMLID_137_" class="st3" cx="247.8" cy="477.1" r="4.6"/>
	<line id="XMLID_136_" class="st3" x1="267.7" y1="513.9" x2="248.5" y2="482.9"/>
	<line id="XMLID_135_" class="st3" x1="247.2" y1="482.6" x2="226.7" y2="513.9"/>
	<g id="XMLID_46_">
		<path id="XMLID_121_" class="st1" d="M670.5,441.1"/>
		<path id="XMLID_119_" class="st1" d="M670.5,401.6"/>
		<g id="XMLID_43_">
			<line id="XMLID_33_" class="st3" x1="738.7" y1="441.1" x2="548.4" y2="328.6"/>
			<path id="XMLID_49_" class="st1" d="M873.8,441.1"/>
			<line id="XMLID_27_" class="st2" x1="509.7" y1="402.3" x2="935.7" y2="402.3"/>
			<line id="XMLID_40_" class="st2" x1="670.7" y1="442.3" x2="935.7" y2="442.3"/>
			<line id="XMLID_39_" class="st2" x1="736.7" y1="402.3" x2="736.7" y2="441.3"/>
			<line id="XMLID_38_" class="st3" x1="738.7" y1="441.1" x2="807" y2="401"/>
			<line id="XMLID_37_" class="st3" x1="670.4" y1="441.1" x2="738.7" y2="401"/>
			<line id="XMLID_21_" class="st3" x1="807" y1="441.1" x2="738.7" y2="401"/>
			<line id="XMLID_55_" class="st3" x1="806.1" y1="441.1" x2="874.4" y2="401"/>
			<line id="XMLID_48_" class="st3" x1="873.2" y1="439.9" x2="806.1" y2="401"/>
			<line id="XMLID_47_" class="st2" x1="805.7" y1="402.3" x2="805.7" y2="441.3"/>
			<line id="XMLID_176_" class="st2" x1="871.7" y1="402.3" x2="871.7" y2="441.3"/>
		</g>
	</g>
	<line id="XMLID_45_" class="st2" x1="669.7" y1="382.3" x2="669.7" y2="499.3"/>
	<line id="XMLID_18_" class="st3" x1="698.6" y1="207.9" x2="827.9" y2="139.2"/>
	<polyline id="XMLID_16_" class="st3" points="443.1,255.2 443.1,384.8 572.9,384.8 572.9,400.3 	"/>
	<circle id="XMLID_2_" class="st3" cx="434.3" cy="43.6" r="5"/>
	<polyline id="XMLID_175_" class="st3" points="242.3,183.2 541.1,183.2 541.1,219.8 527.3,219.8 	"/>
	<line id="XMLID_174_" class="st2" x1="848.7" y1="199.3" x2="848.7" y2="230.3"/>
	<line id="XMLID_203_" class="st1" x1="668.3" y1="147.2" x2="668.3" y2="17.1"/>
	<line id="XMLID_131_" class="st3" x1="776.7" y1="47.4" x2="746.5" y2="17.1"/>
</g>
<g id="XMLID_31_">
	<path id="XMLID_230_" class="st8" d="M588.8,579.1c-1.2,0-1.2,0.7-2.4,0.7c-12.5,0-24.1-5.1-32.3-13.3
		c-8.2-8.2-12.5-19.8-12.5-32.3c0-1.2,0-1.2,0-2.4c0-12.5,4.7-23.7,12.9-31.9c8.2-8.2,19.4-13.7,31.9-13.7c1.2,0,1.2,0.7,2.4,0.7
		c12.5,0,24,4.5,32.2,12.7c8.2,8.2,12.8,19.7,12.8,32.2c0,1.2,0.2,1.2,0.2,2.4c0,12.5-5.2,23.6-13.4,31.8
		C612.4,574.2,601.3,579.1,588.8,579.1z"/>
</g>
<path id="XMLID_197_" class="st9" d="M587.6,570.7L587.6,570.7c-20.9,0-37.8-16.9-37.8-37.8v0c0-20.9,16.9-37.8,37.8-37.8h0
	c20.9,0,37.8,16.9,37.8,37.8v0C625.3,553.8,608.4,570.7,587.6,570.7z"/>
<path id="XMLID_34_" class="st10" d="M585.4,245.7v-30c0-18,14.6-32.5,32.5-32.5h34.5c18,0,32.5-14.6,32.5-32.5v0
	c0-18,14.6-32.5,32.5-32.5h123.2c18,0,32.5,14.6,32.5,32.5v104.6"/>
<rect id="XMLID_1_" x="862.8" y="252.1" class="st11" width="23" height="10.3"/>
<rect id="XMLID_113_" x="868.6" y="262.5" class="st8" width="11.5" height="5.1"/>
<g id="XMLID_20_">
	<path id="XMLID_229_" class="st8" d="M374.4,378.1c0,0,0-0.9,0-0.9c-12.8,0-24.3-4.9-32.7-13.3c-8.4-8.4-13.4-19.8-13.4-32.7
		c0,0-0.6,0-0.6,0c0-12.8,5.4-24.4,13.8-32.8s20-13.4,32.8-13.4c0,0,0-0.6,0-0.6c12.8,0,24.3,5.7,32.7,14.1
		c8.4,8.4,13.7,19.9,13.7,32.7c0,0,0.4,0,0.4,0c0,12.8-5.8,24.3-14.2,32.7C398.6,372.3,387.2,378.1,374.4,378.1z"/>
</g>
<path id="XMLID_188_" class="st9" d="M374.4,369L374.4,369c-20.9,0-37.8-16.9-37.8-37.8v0c0-20.9,16.9-37.8,37.8-37.8h0
	c20.9,0,37.8,16.9,37.8,37.8v0C412.1,352.1,395.2,369,374.4,369z"/>
<g id="XMLID_30_">
	<path id="XMLID_231_" class="st8" d="M803.1,376.8c-1.2,0-1.2-0.7-2.4-0.7c-12.5,0-23.8-4.6-32-12.8c-8.2-8.2-13.7-19.5-13.7-32
		c0-1.2,0.6-1.2,0.6-2.4c0-12.5,4.9-23.8,13.1-32c8.2-8.2,19.5-12.9,32-12.9c1.2,0,1.2-0.9,2.4-0.9c12.5,0,23.7,5.7,31.9,13.9
		c8.2,8.2,13.3,19.4,13.3,31.9c0,1.2,0.2,1.2,0.2,2.4c0,12.5-5.5,23.6-13.7,31.8C826.7,371.2,815.6,376.8,803.1,376.8z"/>
</g>
<path id="XMLID_199_" class="st9" d="M801.9,367.8L801.9,367.8c-20.9,0-37.8-16.9-37.8-37.8v0c0-20.9,16.9-37.8,37.8-37.8h0
	c20.9,0,37.8,16.9,37.8,37.8v0C839.6,350.9,822.7,367.8,801.9,367.8z"/>
<g id="XMLID_32_">
	<path id="XMLID_232_" class="st8" d="M588.8,173.5c-1.2,0-1.2-0.3-2.4-0.3c-12.5,0-23.9-4.6-32.1-12.8c-8.2-8.2-13-19.6-13-32.1
		c0-1.2-0.4-1.2-0.4-2.4c0-12.5,5-24.2,13.2-32.3c8.2-8.2,19.8-13.4,32.3-13.4c1.2,0,1.2,0.3,2.4,0.3c12.5,0,23.8,5.2,32,13.4
		c8.2,8.2,13.1,19.5,13.1,32c0,1.2,0,1.2,0,2.4c0,12.5-4.7,24.1-12.8,32.3C612.9,168.8,601.3,173.5,588.8,173.5z"/>
</g>
<path id="XMLID_198_" class="st9" d="M587.6,164.9L587.6,164.9c-20.9,0-37.8-16.9-37.8-37.8v0c0-20.9,16.9-37.8,37.8-37.8h0
	c20.9,0,37.8,16.9,37.8,37.8v0C625.3,148,608.4,164.9,587.6,164.9z"/>
<g id="XMLID_35_">
	<path id="XMLID_222_" class="st11" d="M663.5,249.9h-32.2c-2,0-3.7,1.6-3.7,3.7v13h39.5v-13C667.1,251.5,665.5,249.9,663.5,249.9z"
		/>
	<rect id="XMLID_50_" x="627.6" y="258.7" class="st12" width="39.5" height="3.6"/>
	<path id="XMLID_225_" class="st11" d="M542,249.9h-32.2c-2,0-3.7,1.6-3.7,3.7v13h39.5v-13C545.7,251.5,544.1,249.9,542,249.9z"/>
	<rect id="XMLID_224_" x="506.2" y="258.7" class="st12" width="39.5" height="3.6"/>
	<path id="XMLID_221_" class="st8" d="M661.4,261.2c-0.1,0-0.2,0-0.3,0v0H511.7c-29.2,0-54.2,22.7-55.2,52
		c-1.1,30.7,23.5,55.9,53.9,55.9c12.6,0,24.3-4.4,33.4-11.6c9.5-7.6,21.2-11.8,33.4-11.8H594c12,0,24,3.7,33.3,11.3
		c9.3,7.6,21.1,12.1,34,12.1c28.4,0,52.4-22.7,53.9-51C716.9,286.9,692.1,261.2,661.4,261.2z"/>
	<rect id="XMLID_220_" x="505" y="293.5" class="st13" width="10.8" height="43.1"/>
	<rect id="XMLID_219_" x="488.8" y="309.7" class="st13" width="43.1" height="10.8"/>
	<circle id="XMLID_218_" class="st13" cx="661.4" cy="315.1" r="36"/>
	<g id="XMLID_146_">
		<circle id="XMLID_209_" class="st8" cx="660.3" cy="298.7" r="8.1"/>
		<circle id="XMLID_204_" class="st8" cx="660.3" cy="331.1" r="8.1"/>
		<circle id="XMLID_149_" class="st8" cx="646.8" cy="314.9" r="8.1"/>
		<circle id="XMLID_147_" class="st8" cx="676.4" cy="314.9" r="8.1"/>
	</g>
	<polygon id="XMLID_127_" class="st11" points="591.1,245.7 579.8,245.7 577,261.2 593.9,261.2 	"/>
	<polygon id="XMLID_54_" class="st12" points="593.2,257.4 577.6,257.4 577,261.2 593.9,261.2 	"/>
	<path id="XMLID_44_" class="st11" d="M608.7,326.7c-0.8-3.7-1.3-7.6-1.3-11.5c0-12.8,4.5-24.5,11.9-33.7h-66.9
		c7.4,9.2,11.9,20.9,11.9,33.7c0,4-0.5,7.8-1.3,11.5H608.7z"/>
	<rect id="XMLID_42_" x="578.7" y="308.6" class="st13" width="16.2" height="5.4"/>
	<rect id="XMLID_36_" x="578.7" y="295.1" class="st13" width="16.2" height="5.4"/>
</g>
<g id="XMLID_157_">
	<path id="XMLID_163_" class="st14" d="M364.5,340.9c0-5.5,4.4-9.9,9.9-9.9s9.9,4.4,9.9,9.9H364.5z"/>
	<circle id="XMLID_87_" class="st15" cx="374.5" cy="323.6" r="4.5"/>
	<g id="XMLID_84_">
		<path id="XMLID_86_" class="st14" d="M350,340.9c0-5.5,4.4-9.9,9.9-9.9s9.9,4.4,9.9,9.9H350z"/>
		<circle id="XMLID_85_" class="st14" cx="360" cy="323.6" r="4.5"/>
	</g>
	<g id="XMLID_57_">
		<path id="XMLID_83_" class="st14" d="M379,340.9c0-5.5,4.4-9.9,9.9-9.9s9.9,4.4,9.9,9.9H379z"/>
		<circle id="XMLID_77_" class="st14" cx="389" cy="323.6" r="4.5"/>
	</g>
	<path id="XMLID_88_" class="st15" d="M364.5,340.9c0-5.5,4.4-9.9,9.9-9.9s9.9,4.4,9.9,9.9H364.5z"/>
</g>
<g id="XMLID_162_">
	<path id="XMLID_164_" class="st16" d="M589.5,133.8h-2.7c-4.6,0-8.4-3.8-8.4-8.4v-16.8h19.5v16.8
		C597.9,130,594.2,133.8,589.5,133.8z"/>
	<polyline id="XMLID_160_" class="st17" points="582,146.8 582,141 594.4,141 594.4,146.8 	"/>
	<path id="XMLID_103_" class="st18" d="M576.5,150.3"/>
	<line id="XMLID_94_" class="st19" x1="599.9" y1="146.8" x2="576.5" y2="146.8"/>
	<path id="XMLID_95_" class="st18" d="M599.9,150.3"/>
	<g id="XMLID_129_">
		<line id="XMLID_150_" class="st20" x1="587.6" y1="133.8" x2="587.6" y2="140.9"/>
	</g>
	<path id="XMLID_122_" class="st19" d="M578.9,126.1L578.9,126.1c-5.7,0-10.4-4.6-10.4-10.4v-2.6h9.9"/>
	<path id="XMLID_115_" class="st19" d="M597.7,126.1L597.7,126.1c5.7,0,10.4-4.6,10.4-10.4v-2.6h-9.9"/>
</g>
<g id="XMLID_53_">
	<g id="XMLID_186_">
		<line id="XMLID_195_" class="st21" x1="584.9" y1="521.1" x2="589.5" y2="521.1"/>
		<line id="XMLID_194_" class="st21" x1="584.9" y1="548.5" x2="597.2" y2="548.5"/>
		<line id="XMLID_193_" class="st21" x1="600.9" y1="548.5" x2="600.7" y2="548.5"/>
		<line id="XMLID_192_" class="st21" x1="584.9" y1="534.5" x2="601.1" y2="534.5"/>
		<line id="XMLID_187_" class="st21" x1="595.1" y1="521.1" x2="602.5" y2="521.1"/>
	</g>
	<path id="XMLID_185_" class="st22" d="M579.9,552.8"/>
	<path id="XMLID_98_" class="st14" d="M606.3,546"/>
	<line id="XMLID_97_" class="st23" x1="569.7" y1="514.8" x2="606.7" y2="514.8"/>
	<path id="XMLID_100_" class="st14" d="M569.9,546"/>
	<line id="XMLID_183_" class="st14" x1="579" y1="551.6" x2="579.3" y2="514.6"/>
	<line id="XMLID_180_" class="st23" x1="569.7" y1="554.8" x2="606.7" y2="554.8"/>
	<line id="XMLID_179_" class="st23" x1="569.7" y1="541.8" x2="606.7" y2="541.8"/>
	<line id="XMLID_178_" class="st23" x1="569.7" y1="527.8" x2="606.7" y2="527.8"/>
	<path id="XMLID_171_" class="st14" d="M579.6,552.8"/>
	<g id="XMLID_168_">
		<path id="XMLID_170_" class="st13" d="M571.8,522.9c0-1.2,1-2.2,2.2-2.2s2.2,1,2.2,2.2H571.8z"/>
		<circle id="XMLID_169_" class="st13" cx="574" cy="519.1" r="1"/>
	</g>
	<g id="XMLID_165_">
		<path id="XMLID_167_" class="st13" d="M571.8,536.7c0-1.2,1-2.2,2.2-2.2s2.2,1,2.2,2.2H571.8z"/>
		<circle id="XMLID_166_" class="st13" cx="574" cy="532.9" r="1"/>
	</g>
	<g id="XMLID_109_">
		<path id="XMLID_161_" class="st13" d="M571.8,551c0-1.2,1-2.2,2.2-2.2s2.2,1,2.2,2.2H571.8z"/>
		<circle id="XMLID_125_" class="st13" cx="574" cy="547.2" r="1"/>
	</g>
</g>
<path id="XMLID_196_" class="st24" d="M915.9,592.9h-64.3c-2.7,0-4.9-2.2-4.9-4.9l0,0c0-2.7-2.2-4.9-4.9-4.9H728.7v0
	c0-12.2,9.9-22.1,22.1-22.1h53.7c4.2,0,7.7-3.4,7.7-7.7l0,0c0-4.2,3.4-7.7,7.7-7.7h66.4c8.1,0,14.6-6.5,14.6-14.6l0,0
	c0-8.1,6.5-14.6,14.6-14.6h72.5c3.3,0,6,2.7,6,6l0,0c0,3.3-2.7,6-6,6h-36.5c-3.8,0-6.9,3.1-6.9,6.9l0,0c0,3.8,3.1,6.9,6.9,6.9h36.5
	c7.1,0,12.9,5.8,12.9,12.9l0,0c0,7.1-5.8,12.9-12.9,12.9H874.3c-3,0-5.4,2.4-5.4,5.4l0,0c0,3,2.4,5.4,5.4,5.4h41.5
	c3.8,0,6.9,3.1,6.9,6.9v0C922.8,589.8,919.7,592.9,915.9,592.9z"/>
<g id="XMLID_184_">
	<rect id="XMLID_200_" x="790.9" y="315.2" class="st13" width="21.5" height="28.6"/>
	<g id="XMLID_365_">
		<path id="XMLID_371_" class="st14" d="M808.4,352.5h-13.5c-2.2,0-4-1.8-4-4v-36.1c0-2.2,1.8-4,4-4h13.5c2.2,0,4,1.8,4,4v36.1
			C812.4,350.7,810.6,352.5,808.4,352.5z"/>
		<line id="XMLID_190_" class="st14" x1="790.9" y1="315.2" x2="812.4" y2="315.2"/>
		<line id="XMLID_189_" class="st14" x1="812.4" y1="343.8" x2="790.9" y2="343.8"/>
		<circle id="XMLID_369_" class="st13" cx="801.6" cy="347.9" r="1.7"/>
	</g>
	<text id="XMLID_240_" transform="matrix(1 0 0 1 798.3916 337.3608)" class="st25 st26 st27">!</text>
</g>
<path id="XMLID_191_" class="st24" d="M284.7,48.4L284.7,48.4c0-4.9-3.9-8.8-8.8-8.8h-29.3c-5.4,0-9.8-4.4-9.8-9.8v0
	c0-5.4-4.4-9.8-9.8-9.8h-65.3c-12.5,0-22.7,10.2-22.7,22.7v0h56.1c4.4,0,8,3.6,8,8v0c0,4.4,3.6,8,8,8h27.8c3.6,0,6.5,2.9,6.5,6.5v0
	c0,3.6-2.9,6.5-6.5,6.5h-52.3c-4.5,0-8.1,3.6-8.1,8.1v0c0,4.5,3.6,8.1,8.1,8.1h33.8c2.3,0,4.1,1.8,4.1,4.1v0c0,2.3,1.8,4.1,4.1,4.1
	h58.7c3.6,0,6.6-2.9,6.6-6.6v0c0-3.6,2.9-6.6,6.6-6.6h48.1c7.1,0,12.9-5.8,12.9-12.9v0c0-7.1-5.8-12.9-12.9-12.9h-55
	C288.7,57.2,284.7,53.2,284.7,48.4z"/>
<line id="XMLID_132_" class="st28" x1="800.6" y1="105.1" x2="786.2" y2="119.5"/>
</svg>
